:SAMPLES-PER-SECOND 30
:FULLY-SPECIFIED
:DEGREES
138
root  -54.8398 34.9679 30.2454 -171.102 56.8087 -179.153
RightUpLeg  -6.83679 -12.6252 -2.25285
RightLeg  5.0051 -1.70229 -0.0381575
RightFoot  5.47743 0.0231887 -0.00672972
RightToes  -23.3281 -0.0957958 -0.199039
Spine  -2.40799 1.51004 -3.1099
Spine1  -4.888 2.93884 -5.4538
HEad  -68.8608 -5.72326 2.74808
LeftShoulder1  -1.94126e-019 -3.10601e-018 -2.51263e-017
LeftArm  -12.6122 25.7268 -74.1865
LeftForeArm  32.9186 -11.1035 -1.91656
LeftHand  -0.366189 -0.58283 7.22424
RightShoulder  -4.96962e-017 0 -2.36833e-017
RightArm  10.5069 -17.6427 71.1469
RightForeArm  51.4559 40.717 6.4291
RightHand  0.0920772 2.73659 1.10352
LeftUpLeg  -4.74668 3.3791 0.382254
LeftLeg  1.60539 16.8052 -0.60079
LeftFoot  6.23013 -0.101618 2.04611
LeftToes  -17.8749 1.48321e-006 1.01846e-007
139
root  -54.859 34.9611 30.2755 -171.098 57.6032 -179.196
RightUpLeg  -7.13152 -11.801 -2.28241
RightLeg  5.16423 -1.73056 -0.0435997
RightFoot  5.4647 0.0233599 -0.00485073
RightToes  -23.3104 -0.0959875 -0.19908
Spine  -2.44964 1.59273 -2.87277
Spine1  -4.96157 3.09635 -4.9629
HEad  -68.7675 -5.55198 2.15486
LeftShoulder1  -1.94126e-019 -3.10601e-018 -2.51263e-017
LeftArm  -11.8929 25.1759 -74.583
LeftForeArm  31.3401 -11.7059 -1.99694
LeftHand  -0.345346 -0.138191 7.32416
RightShoulder  -4.96962e-017 0 -2.36833e-017
RightArm  8.64604 -18.1842 70.9968
RightForeArm  52.0402 40.8583 6.44555
RightHand  0.0638566 2.88418 0.676158
LeftUpLeg  -4.84033 4.07823 0.309604
LeftLeg  1.81521 16.9303 -0.543995
LeftFoot  6.07686 -0.101021 2.01534
LeftToes  -17.5648 1.48321e-006 1.01846e-007
140
root  -54.85 34.982 30.2939 -171.034 57.9553 -179.125
RightUpLeg  -6.86329 -11.6303 -2.22249
RightLeg  4.47767 -1.61616 -0.0213574
RightFoot  5.83364 0.0235131 -0.00165298
RightToes  -23.4228 -0.0961912 -0.199134
Spine  -2.4987 1.50424 -2.82211
Spine1  -5.05529 2.91031 -4.86892
HEad  -68.6188 -5.1835 2.31195
LeftShoulder1  -1.94126e-019 -3.10601e-018 -2.51263e-017
LeftArm  -11.8667 24.5403 -74.3676
LeftForeArm  29.5442 -12.3499 -2.07727
LeftHand  -0.323266 -0.0115586 7.00671
RightShoulder  -4.96962e-017 0 -2.36833e-017
RightArm  7.35251 -18.6039 71.3035
RightForeArm  52.0635 40.3996 6.31323
RightHand  0.0603456 2.91452 0.622241
LeftUpLeg  -4.52576 4.43414 0.342485
LeftLeg  1.21887 16.9006 -0.71658
LeftFoot  6.39571 -0.108701 2.10694
LeftToes  -17.9644 1.48321e-006 1.01846e-007
141
root  -54.8357 35.0047 30.3194 -170.918 58.1411 -178.965
RightUpLeg  -6.49905 -11.6043 -2.09854
RightLeg  3.70674 -1.44892 0.000334258
RightFoot  6.2431 0.0237565 0.0012493
RightToes  -23.5728 -0.096407 -0.199206
Spine  -2.57979 1.34614 -2.9532
Spine1  -5.22605 2.59719 -5.16097
HEad  -68.4158 -4.57916 3.16159
LeftShoulder1  -1.94126e-019 -3.10601e-018 -2.51263e-017
LeftArm  -12.1004 24.2467 -73.5019
LeftForeArm  27.3257 -15.4561 -2.60859
LeftHand  -0.280174 0.016735 6.10375
RightShoulder  -4.96962e-017 0 -2.36833e-017
RightArm  7.07225 -18.9464 71.8961
RightForeArm  51.665 39.51 6.07874
RightHand  0.0576639 2.75814 0.597398
LeftUpLeg  -4.12441 4.82549 0.453584
LeftLeg  0.478032 16.7065 -0.921932
LeftFoot  6.64202 -0.115644 2.15429
LeftToes  -17.7784 1.48321e-006 1.01846e-007
142
root  -54.8287 35.0163 30.3391 -170.972 58.275 -178.99
RightUpLeg  -6.37995 -11.5642 -2.08654
RightLeg  3.4669 -1.38414 0.00611089
RightFoot  6.38177 0.0240791 0.00394328
RightToes  -23.5701 -0.0966355 -0.199296
Spine  -2.61068 1.3686 -2.63173
Spine1  -5.26592 2.63389 -4.50027
HEad  -68.3272 -4.67008 2.44966
LeftShoulder1  -1.94126e-019 -3.10601e-018 -2.51263e-017
LeftArm  -11.0094 23.0311 -73.8591
LeftForeArm  22.2999 -17.5836 -2.95942
LeftHand  -0.200947 0.62836 4.87198
RightShoulder  -4.96962e-017 0 -2.36833e-017
RightArm  6.75732 -19.3264 71.0373
RightForeArm  52.5286 40.268 6.25231
RightHand  0.0521826 3.00426 0.607283
LeftUpLeg  -4.00101 4.85652 0.470098
LeftLeg  0.27869 16.8459 -0.987324
LeftFoot  6.80976 -0.122845 2.22392
LeftToes  -18.0323 1.48321e-006 1.01846e-007
